# OBJ generated by ONSHAPE BY PTC INC, 1.197 Units = meters
mtllib test_part.mtl
g Part 1
v -0.0296526 -0.0359658 0.02 
v -0.0296526 0.0462806 0.02 
v -0.0296526 0.0462806 0.005 
v -0.0296526 -0.0359658 0.005 
v 0.0495376 -0.0359658 0.02 
v 0.0495376 -0.0359658 0.005 
v 0.0495376 0.0462806 0.02 
v 0.0495376 0.0462806 0.005 
v 0.0445376 -0.0309658 0.025 
v -0.0246526 -0.0309658 0.025 
v -0.0246526 0.0412806 0.025 
v 0.0445376 0.0412806 0.025 
v -0.0246526 0.0412806 0 
v -0.0246526 -0.0309658 0 
v 0.0445376 0.0412806 0 
v 0.0445376 -0.0309658 0 
vn -1 0 0 
vn 0 -1 0 
vn 1 0 0 
vn 0 -0.707107 0.707107 
vn 0 0 1 
vn -0.707107 0 0.707107 
vn 0 0.707107 0.707107 
vn 0.707107 0 0.707107 
vn 0 1 0 
vn -0.707107 0 -0.707107 
vn 0 0 -1 
vn 0 -0.707107 -0.707107 
vn 0 0.707107 -0.707107 
vn 0.707107 0 -0.707107 
usemtl 0.615686_0.811765_0.929412_0.000000_0.000000
o mesh0
f 1//1 2//1 3//1 
f 3//1 4//1 1//1 
o mesh1
f 5//2 1//2 4//2 
f 4//2 6//2 5//2 
o mesh2
f 7//3 5//3 6//3 
f 6//3 8//3 7//3 
o mesh3
f 1//4 5//4 9//4 
f 9//4 10//4 1//4 
o mesh4
f 11//5 10//5 9//5 
f 9//5 12//5 11//5 
o mesh5
f 2//6 1//6 10//6 
f 10//6 11//6 2//6 
o mesh6
f 2//7 11//7 12//7 
f 12//7 7//7 2//7 
o mesh7
f 7//8 12//8 9//8 
f 9//8 5//8 7//8 
o mesh8
f 2//9 7//9 8//9 
f 8//9 3//9 2//9 
o mesh9
f 3//10 13//10 14//10 
f 14//10 4//10 3//10 
o mesh10
f 14//11 13//11 15//11 
f 15//11 16//11 14//11 
o mesh11
f 4//12 14//12 16//12 
f 16//12 6//12 4//12 
o mesh12
f 3//13 8//13 15//13 
f 15//13 13//13 3//13 
o mesh13
f 8//14 6//14 16//14 
f 16//14 15//14 8//14 
